<svg width="30" height="30" viewBox="0 0 30 30" fill="none" xmlns="http://www.w3.org/2000/svg">
<path d="M20.7588 3.75625C21.0571 3.45683 21.4116 3.21924 21.802 3.05708C22.1923 2.89493 22.6108 2.8114 23.0335 2.81128C23.4562 2.81116 23.8747 2.89446 24.2652 3.05641C24.6556 3.21835 25.0102 3.45575 25.3088 3.755L26.2463 4.69375C26.545 4.99211 26.782 5.34645 26.9438 5.73649C27.1055 6.12654 27.1887 6.54463 27.1887 6.96687C27.1887 7.38911 27.1055 7.80721 26.9438 8.19725C26.782 8.5873 26.545 8.94163 26.2463 9.24L16.7463 18.745C16.4478 19.0439 16.0934 19.2809 15.7032 19.4426C15.3131 19.6044 14.8948 19.6876 14.4725 19.6875H11.25C11.0014 19.6875 10.7629 19.5887 10.5871 19.4129C10.4113 19.2371 10.3125 18.9986 10.3125 18.75V15.5475C10.3125 14.695 10.65 13.8775 11.2525 13.275L20.7588 3.75625Z" fill="#FEB77A"/>
<path d="M14.9287 2.81226H15C15.2486 2.81226 15.4871 2.91103 15.6629 3.08684C15.8387 3.26266 15.9375 3.50112 15.9375 3.74976C15.9375 3.9984 15.8387 4.23685 15.6629 4.41267C15.4871 4.58848 15.2486 4.68726 15 4.68726C12.3213 4.68726 10.4075 4.68976 8.9525 4.88476C7.525 5.07726 6.68125 5.43976 6.06 6.05976C5.44 6.68101 5.0775 7.52476 4.885 8.95226C4.69 10.4073 4.6875 12.321 4.6875 14.9998C4.6875 17.6785 4.69 19.5923 4.885 21.0473C5.0775 22.4748 5.44 23.3185 6.06 23.9398C6.68125 24.5598 7.525 24.9223 8.9525 25.1148C10.4075 25.3098 12.3213 25.3123 15 25.3123C17.6787 25.3123 19.5925 25.3098 21.0475 25.1148C22.475 24.9223 23.3188 24.5598 23.94 23.9398C24.56 23.3185 24.9225 22.4748 25.115 21.0473C25.31 19.5923 25.3125 17.6773 25.3125 14.9998C25.3125 14.7511 25.4113 14.5127 25.5871 14.3368C25.7629 14.161 26.0014 14.0623 26.25 14.0623C26.4986 14.0623 26.7371 14.161 26.9129 14.3368C27.0887 14.5127 27.1875 14.7511 27.1875 14.9998V15.071C27.1875 17.6623 27.1875 19.7023 26.9738 21.296C26.7538 22.9335 26.2925 24.2385 25.265 25.2648C24.2387 26.2923 22.9325 26.7523 21.2975 26.9735C19.7025 27.1873 17.6625 27.1873 15.0713 27.1873H14.9287C12.3375 27.1873 10.2975 27.1873 8.70375 26.9735C7.06625 26.7535 5.76125 26.2923 4.735 25.2648C3.7075 24.2385 3.2475 22.9323 3.02625 21.2973C2.8125 19.7023 2.8125 17.6623 2.8125 15.071V14.9285C2.8125 12.3373 2.8125 10.2973 3.02625 8.70351C3.24625 7.06601 3.7075 5.76101 4.735 4.73476C5.76125 3.70726 7.0675 3.24726 8.7025 3.02601C10.2975 2.81226 12.3375 2.81226 14.9287 2.81226Z" fill="#FEB77A" stroke="#FEB77A" stroke-width="0.5"/>
</svg>
